<?xml version="1.0" encoding="UTF-8"?>
<!DOCTYPE svg PUBLIC "-//W3C//DTD SVG 1.1//EN" "http://www.w3.org/Graphics/SVG/1.1/DTD/svg11.dtd">
<!-- Creator: CorelDRAW -->
<svg xmlns="http://www.w3.org/2000/svg" xml:space="preserve" width="90.7113mm" height="200.268mm" version="1.1" style="shape-rendering:geometricPrecision; text-rendering:geometricPrecision; image-rendering:optimizeQuality; fill-rule:evenodd; clip-rule:evenodd"
viewBox="0 0 8918.69 19690.28"
 xmlns:xlink="http://www.w3.org/1999/xlink"
 xmlns:xodm="http://www.corel.com/coreldraw/odm/2003">
 <defs>
  <style type="text/css">
   <![CDATA[
    .str0 {stroke:black;stroke-width:346.85;stroke-miterlimit:22.9256}
    .str2 {stroke:black;stroke-width:277.48;stroke-linecap:round;stroke-linejoin:round;stroke-miterlimit:22.9256}
    .str1 {stroke:black;stroke-width:346.85;stroke-linecap:round;stroke-linejoin:round;stroke-miterlimit:22.9256}
    .fil2 {fill:#FF99CC}
    .fil0 {fill:white}
    .fil1 {fill:black;fill-rule:nonzero}
   ]]>
  </style>
 </defs>
 <g id="Слой_x0020_1">
  <metadata id="CorelCorpID_0Corel-Layer"/>
  <g>
   <path class="fil0" d="M2543.98 19417.09c713.05,-960.28 626.22,-620.09 721.92,-1888.35 17.4,-230.66 586.39,-2166.47 602.89,-2175.04 480.22,-249.25 1372.77,219.53 728.63,1414.06 -517.9,960.4 238.15,2649.34 -873.9,2649.34 -369.6,0 -967.64,226.85 -1179.53,0z"/>
   <path id="_1" class="fil1" d="M3092.95 17515.84l345.89 25.8 0 0.01 -8.44 113.86 -7.56 105.09 -6.86 96.95 -6.35 89.39 -6.03 82.44 -5.9 76.1 -5.96 70.42 -6.21 65.33 -6.71 60.97 -7.43 57.2 -8.41 54.08 -9.66 51.51 -11.18 49.43 -12.99 47.77 -15 46.31 -17.13 45.02 -19.32 43.88 -21.47 42.91 -23.59 42.17 -25.62 41.82 -27.72 42 -29.88 42.72 -32.22 44.13 -34.76 46.16 -37.53 48.89 -40.58 52.25 -43.85 56.27 -47.39 60.89 -51.17 66.14 -55.18 71.98 -59.4 78.39 -63.87 85.42 -279.03 -204.88 65.21 -87.19 60.64 -80.04 56.24 -73.36 51.93 -67.14 47.78 -61.4 43.75 -56.13 39.81 -51.28 35.99 -46.87 32.28 -42.88 28.68 -39.27 25.24 -36.07 21.99 -33.29 19.01 -31 16.37 -29.27 14.14 -28.2 12.32 -27.97 10.89 -28.62 9.77 -30.2 8.88 -32.69 8.13 -36.03 7.5 -40.01 6.91 -44.58 6.45 -49.65 6.06 -55.15 5.82 -61.09 5.7 -67.43 5.74 -74.17 5.95 -81.38 6.33 -89 6.86 -97.11 7.6 -105.66 8.49 -114.69 0 0.01zm0 -0.01c7.17,-94.98 90.41,-166.19 185.92,-159.06 95.51,7.13 167.13,89.9 159.97,184.88l-345.89 -25.82zm695.58 -2315.02l160.5 305.77 0.08 -0.04 77.73 -82.88 -3.34 9.36 -8.07 24.18 -11.16 34.79 -13.77 43.93 -16.08 52.18 -18.17 59.62 -20 66.35 -21.65 72.4 -23.08 77.72 -24.3 82.4 -25.32 86.37 -26.13 89.71 -26.74 92.35 -27.15 94.32 -27.35 95.64 -27.34 96.26 -27.15 96.23 -26.73 95.52 -26.12 94.13 -25.3 92.08 -24.28 89.33 -23.05 85.91 -21.61 81.8 -19.96 76.99 -18.1 71.45 -16.01 65.13 -13.7 58.04 -11.14 49.98 -8.31 40.71 -5.14 29.44 -1.76 13.68 -345.89 -25.8 4.67 -39.34 7.34 -42.24 9.84 -48.28 12.24 -54.99 14.54 -61.62 16.67 -67.84 18.63 -73.53 20.39 -78.65 21.96 -83.2 23.36 -87.09 24.55 -90.34 25.55 -92.96 26.34 -94.92 26.93 -96.21 27.32 -96.87 27.52 -96.85 27.51 -96.21 27.3 -94.87 26.9 -92.88 26.29 -90.24 25.47 -86.92 24.46 -82.97 23.27 -78.35 21.85 -73.07 20.25 -67.19 18.46 -60.62 16.49 -53.48 14.34 -45.78 12.1 -37.68 9.92 -29.68 8.99 -24.56 84 -95.57 0.08 -0.04zm-0.08 0.04c84.88,-44.11 189.67,-11.43 234.03,72.97 44.36,84.41 11.5,188.62 -73.38,232.72l-160.65 -305.69zm961.79 1648.4l-305.68 -162.99 0 0 52.22 -102.55 43.66 -97.48 35.57 -92.44 27.96 -87.35 20.8 -82.21 14.16 -77.09 8.03 -72 2.43 -66.97 -2.64 -62.03 -7.23 -57.29 -11.33 -52.76 -14.99 -48.46 -18.32 -44.45 -21.31 -40.7 -24.08 -37.2 -26.62 -33.91 -28.97 -30.73 -31.17 -27.68 -33.18 -24.68 -34.95 -21.66 -36.48 -18.61 -37.75 -15.54 -38.72 -12.44 -39.33 -9.29 -39.57 -6.14 -39.46 -2.97 -39 0.15 -38.13 3.22 -36.87 6.2 -35.35 9.08 -33.48 11.83 -31.46 14.48 -160.5 -305.77 60.88 -28.05 62.97 -22.27 64.53 -16.62 65.68 -11.06 66.4 -5.61 66.79 -0.27 66.87 5.03 66.61 10.32 65.97 15.6 64.99 20.89 63.65 26.22 61.9 31.61 59.69 37.02 57.02 42.43 53.88 47.89 50.19 53.29 45.96 58.59 41.21 63.75 35.96 68.71 30.21 73.43 24.1 77.9 17.6 82.06 10.84 86.02 3.82 89.76 -3.39 93.3 -10.79 96.76 -18.41 100.16 -26.19 103.51 -34.2 106.87 -42.43 110.29 -50.94 113.73 -59.67 117.18 0 0zm0 0c-45.26,83.94 -150.39,115.49 -234.8,70.49 -84.41,-45 -116.13,-149.54 -70.88,-233.48l305.68 162.99zm-1026.74 2740.29l0 -344.9 0 0 81.1 -3.97 67.97 -10.97 56.16 -16.63 46.19 -21.21 38.63 -25.45 33.42 -30.28 29.8 -36.28 26.93 -43.48 24.1 -51.4 21.04 -59.45 17.76 -67.17 14.44 -74.39 11.25 -80.94 8.31 -86.76 5.71 -91.98 3.6 -96.53 1.94 -100.49 0.8 -103.92 0.24 -106.82 0.22 -109.21 0.79 -111.16 1.96 -112.63 3.74 -113.7 6.14 -114.36 9.18 -114.59 12.9 -114.44 17.31 -113.9 22.46 -112.99 28.38 -111.65 35.1 -109.82 42.63 -107.47 50.89 -104.32 305.68 162.99 -38.93 79.87 -33.43 84.39 -28.34 88.78 -23.57 92.85 -19.15 96.51 -15.13 99.69 -11.52 102.39 -8.38 104.58 -5.68 106.27 -3.52 107.5 -1.88 108.23 -0.77 108.53 -0.22 108.39 -0.24 107.79 -0.84 106.85 -2.04 105.53 -3.87 103.86 -6.36 101.91 -9.57 99.72 -13.57 97.28 -18.43 94.64 -24.36 91.79 -31.48 88.6 -39.95 84.81 -49.8 80.03 -60.77 73.62 -72.14 65.15 -83.05 54.62 -92.79 42.6 -101.27 30.06 -109.05 17.68 -116.66 5.78 0 0zm0 0c-95.77,0 -173.43,-77.21 -173.43,-172.45 0,-95.24 77.65,-172.45 173.43,-172.45l0 344.9zm-1319.04 -274.89l279.03 204.88 -12.45 -219.8 6.41 6.07 7.73 5.79 9.74 5.78 12.37 5.76 15.25 5.56 18.22 5.05 21.18 4.34 23.96 3.43 26.58 2.4 28.95 1.3 31.09 0.19 32.99 -0.91 34.7 -1.97 36.22 -2.94 37.5 -3.84 38.69 -4.64 39.66 -5.33 40.47 -5.91 41.17 -6.38 41.74 -6.74 42.14 -6.96 42.47 -7.09 42.71 -7.07 42.79 -6.91 42.79 -6.66 42.75 -6.27 42.61 -5.72 42.42 -5.06 42.2 -4.24 41.94 -3.26 41.71 -2.1 41.33 -0.74 0 344.9 -29.26 0.54 -31.36 1.59 -33.33 2.6 -35.08 3.53 -36.64 4.38 -37.99 5.11 -39.19 5.74 -40.25 6.26 -41.12 6.66 -41.86 6.93 -42.51 7.09 -43.04 7.12 -43.45 7 -43.74 6.79 -43.99 6.42 -44.09 5.92 -44.14 5.29 -44.17 4.51 -44.09 3.57 -44 2.5 -43.9 1.19 -43.73 -0.27 -43.61 -1.99 -43.47 -3.95 -43.37 -6.24 -43.2 -8.92 -43 -12.01 -42.54 -15.59 -41.83 -19.68 -40.58 -24.27 -38.52 -29.05 -35.55 -33.85 -12.45 -219.8zm12.45 219.8c-65.18,-69.78 -61.13,-178.91 9.05,-243.72 70.17,-64.81 179.91,-60.78 245.09,9l-254.14 234.73z"/>
  </g>
  <path class="fil0 str0" d="M4484.19 3689.69c2723.23,327.76 4331.72,3848.7 3905.47,7390.31 -426.25,3541.61 -1950.88,4922.98 -4674.12,4595.23 -2723.23,-327.76 -3411.97,-3738 -2985.72,-7279.6 426.26,-3541.61 1031.14,-5033.69 3754.37,-4705.93z"/>
  <path class="fil2 str1" d="M8745.66 8458.03c-207.74,-3008.71 -1064.07,-5687.49 -4076.6,-5136.44 -2693.76,-578.27 -3750.51,1345.57 -4494.62,4815.84 -41.07,191.51 774.57,294.58 1925.8,347.74 206.01,9.51 567.98,-1323.49 792,-1317.07 225.32,6.45 312.83,1352.34 550.1,1356.08 1001.86,15.78 2082.37,9.08 3005,-4.97 480.78,-98.24 756.64,-226.81 1142.86,-327.71 585.91,237.17 1155.78,271.13 1155.47,266.52z"/>
  <g id="_105553463087168">
   <path class="fil0 str2" d="M3525.02 4053.73c596.34,236.27 1922.82,417.01 2371.39,-124.59 115.54,-139.49 298.28,-600.28 -80.97,-554.5 -492.94,59.49 -1011.22,158.54 -1487.94,72.04 -354.86,-64.39 -1022.32,519.96 -802.48,607.05z"/>
   <path class="fil0 str2" d="M4239.18 3298.74c596.28,236.21 1506.66,229.7 1955.19,-311.86 115.51,-139.46 414.82,-595.47 35.57,-549.69 -147.22,17.77 -1077.34,205.16 -1341.98,260.21 -361.52,75.18 -839.6,525.75 -648.78,601.34z"/>
   <path class="fil0 str2" d="M4944.66 2548.78c275.45,134.11 1218.49,-30.87 1589.68,-362.96 134.93,-120.72 414.81,-595.47 35.57,-549.69 -147.22,17.77 -696.57,85.12 -961.21,140.14 -361.49,75.16 -848.54,682.69 -664.04,772.51z"/>
   <path class="fil0 str2" d="M6709.54 1598.86c12.59,-35.85 309.81,-296.12 312.46,-639.02 0.88,-113.53 -753.75,52.62 -881.1,119.49 -201.81,105.99 -447.94,346.22 -500.58,525.98 -68.72,234.64 1069.14,-6.18 1069.22,-6.45z"/>
   <path class="fil0 str2" d="M6414.38 989.26c63.55,-25.82 532.65,-71.97 607.46,-139.22 181.82,-163.46 236.06,-502.33 202.7,-661.39 -24.4,-116.28 -225.28,0.1 -315.72,52.23 -159.81,92.12 -630.46,409.06 -586.33,615.16 17.7,82.64 14.5,164.68 91.9,133.22z"/>
  </g>
 </g>
</svg>
